# xmcd CD database file
#
# Track frame offsets:
#	150
#	35552
#	61007
#	78211
#	162657
#
# Disc length: 2391 seconds
#
# Revision: 0
# Processed by: cddbd v1.5.1PL0 Copyright (c) Steve Scherf et al.
# Submitted via: CDex 1.51
#
DISCID=35095505
DTITLE=Steve Lacy - The Gap
DYEAR=1972
DGENRE=Jazz
TTITLE0=The Gap
TTITLE1=Esteem
TTITLE2=La Motte-Piquet
TTITLE3=The Thing
TTITLE4=La Motte-Piquet (alt take)
EXTD=YEAR: 1972
EXTT0=
EXTT1=
EXTT2=
EXTT3=
EXTT4=
PLAYORDER=
